# xmcd CD database file
#
# Track frame offsets:
#	150
#	24970
#	46365
#
# Disc length: 949 seconds
#
# Revision: 0
# Processed by: cddbd v1.5PL3 Copyright (c) Steve Scherf et al.
# Submitted via: CDex 1.50
#
DISCID=1903b303
DTITLE=高野　寛 - 愛の言葉
DYEAR=1993
DGENRE=JPop
TTITLE0=愛の言葉
TTITLE1=ベイビー・ベイビー
TTITLE2=愛の言葉(オリジナルカラオケ)
EXTD=YEAR: 1993
EXTT0=
EXTT1=
EXTT2=
PLAYORDER=
